<svg xmlns="http://www.w3.org/2000/svg" width="512" height="512" viewBox="0 0 512 512">
<g>
<path d="M 0.00 0.00 L 512.00 0.00 L 512.00 512.00 L 0.00 512.00 ZM 71.48 355.23 L 69.14 361.00 L 114.60 361.00 L 131.56 314.50 L 215.26 314.50 L 220.48 328.00 C223.35,335.42 227.39,345.89 229.45,351.25 L 233.21 361.00 L 279.66 361.00 L 240.34 262.75 C218.72,208.71 199.84,161.68 198.39,158.23 L 195.76 151.96 L 150.61 152.50 L 145.45 165.50 C139.34,180.91 131.83,200.10 125.67,216.00 C123.22,222.32 115.25,242.80 107.95,261.50 C92.71,300.57 89.82,307.99 80.57,331.98 C76.86,341.60 72.77,352.06 71.48,355.23 ZM 295.25 257.25 L 294.99 361.00 L 443.00 361.00 L 443.00 325.00 L 338.00 325.00 L 338.00 152.96 L 316.75 153.23 L 295.50 153.50 ZM 200.76 276.75 C201.12,277.73 195.15,278.00 173.02,278.00 C157.52,278.00 144.98,277.64 145.17,277.19 C145.35,276.75 151.57,259.68 159.00,239.25 C166.43,218.83 172.77,202.43 173.10,202.81 C173.55,203.32 190.14,247.68 200.76,276.75 Z" fill="rgb(188,84,36)"/>
<path d="M 71.48 355.23 C72.77,352.06 76.86,341.60 80.57,331.98 C89.82,307.99 92.71,300.57 107.95,261.50 C115.25,242.80 123.22,222.32 125.67,216.00 C131.83,200.10 139.34,180.91 145.45,165.50 L 150.61 152.50 L 173.18 152.23 L 195.76 151.96 L 198.39 158.23 C199.84,161.68 218.72,208.71 240.34,262.75 L 279.66 361.00 L 256.43 361.00 L 233.21 361.00 L 229.45 351.25 C227.39,345.89 223.35,335.42 220.48,328.00 L 215.26 314.50 L 173.41 314.50 L 131.56 314.50 L 123.08 337.75 L 114.60 361.00 L 91.87 361.00 L 69.14 361.00 L 71.48 355.23 ZM 200.76 276.75 C190.14,247.68 173.55,203.32 173.10,202.81 C172.77,202.43 166.43,218.83 159.00,239.25 C151.57,259.68 145.35,276.75 145.17,277.19 C144.98,277.64 157.52,278.00 173.02,278.00 C195.15,278.00 201.12,277.73 200.76,276.75 ZM 295.25 257.25 L 295.50 153.50 L 316.75 153.23 L 338.00 152.96 L 338.00 238.98 L 338.00 325.00 L 390.50 325.00 L 443.00 325.00 L 443.00 343.00 L 443.00 361.00 L 369.00 361.00 L 294.99 361.00 L 295.25 257.25 Z" fill="rgb(254,254,254)"/>
</g>
</svg>