<svg xmlns="http://www.w3.org/2000/svg" width="512" height="512" viewBox="0 0 512 512">
<g>
<path d="M 0.00 0.00 L 512.00 0.00 L 512.00 512.00 L 0.00 512.00 ZM 103.00 403.25 C103.00,403.66 118.20,404.00 136.79,404.00 L 170.58 404.00 L 196.50 332.50 L 322.38 332.50 L 336.04 368.00 L 349.70 403.50 L 384.35 403.76 C403.41,403.91 419.00,403.68 419.00,403.26 C419.00,402.84 390.74,331.84 356.20,245.50 L 293.40 88.50 L 259.45 88.24 L 225.49 87.97 L 208.29 132.24 C198.83,156.58 182.49,198.55 171.99,225.50 C161.48,252.45 144.84,295.20 134.99,320.50 C125.15,345.80 113.92,374.60 110.05,384.50 C106.18,394.40 103.00,402.84 103.00,403.25 ZM 301.00 277.87 C301.00,278.69 289.66,279.00 259.00,279.00 C226.82,279.00 217.00,278.72 217.00,277.79 C217.00,275.05 258.50,163.15 259.10,164.28 C260.42,166.77 301.00,276.77 301.00,277.87 Z" fill="rgb(72,169,228)"/>
<path d="M 103.00 403.25 C103.00,402.84 106.18,394.40 110.05,384.50 C113.92,374.60 125.15,345.80 134.99,320.50 C144.84,295.20 161.48,252.45 171.99,225.50 C182.49,198.55 198.83,156.58 208.29,132.24 L 225.49 87.97 L 259.45 88.24 L 293.40 88.50 L 356.20 245.50 C390.74,331.84 419.00,402.84 419.00,403.26 C419.00,403.68 403.41,403.91 384.35,403.76 L 349.70 403.50 L 336.04 368.00 L 322.38 332.50 L 259.44 332.50 L 196.50 332.50 L 183.54 368.25 L 170.58 404.00 L 136.79 404.00 C118.20,404.00 103.00,403.66 103.00,403.25 ZM 301.00 277.87 C301.00,276.77 260.42,166.77 259.10,164.28 C258.50,163.15 217.00,275.05 217.00,277.79 C217.00,278.72 226.82,279.00 259.00,279.00 C289.66,279.00 301.00,278.69 301.00,277.87 Z" fill="rgb(254,254,254)"/>
</g>
</svg>