<svg xmlns="http://www.w3.org/2000/svg" width="512" height="512" viewBox="0 0 512 512">
<g>
<path d="M 0.00 0.00 L 512.00 0.00 L 512.00 512.00 L 0.00 512.00 ZM 186.35 311.74 L 207.50 344.99 L 239.00 345.00 L 239.00 168.00 L 210.01 168.00 L 209.50 299.37 L 185.07 260.93 C171.64,239.79 157.77,218.00 154.25,212.50 C150.73,207.00 142.90,194.74 136.85,185.25 L 125.85 168.00 L 94.00 168.00 L 94.00 344.00 L 123.99 344.00 L 124.24 279.29 L 124.50 214.57 L 144.85 246.54 C156.04,264.12 174.72,293.46 186.35,311.74 ZM 379.72 333.75 L 386.99 345.00 L 418.00 345.00 L 418.00 168.00 L 389.00 168.00 L 388.99 233.75 L 388.98 299.50 L 381.93 288.50 C361.24,256.21 341.47,225.13 324.50,198.22 L 305.50 168.09 L 273.00 168.00 L 273.00 344.00 L 302.99 344.00 L 303.24 279.05 L 303.50 214.11 L 337.97 268.30 C356.94,298.11 375.72,327.56 379.72,333.75 Z" fill="rgb(3,72,142)"/>
<path d="M 186.35 311.74 C174.72,293.46 156.04,264.12 144.85,246.54 L 124.50 214.57 L 124.24 279.29 L 123.99 344.00 L 108.99 344.00 L 94.00 344.00 L 94.00 256.00 L 94.00 168.00 L 109.93 168.00 L 125.85 168.00 L 136.85 185.25 C142.90,194.74 150.73,207.00 154.25,212.50 C157.77,218.00 171.64,239.79 185.07,260.93 L 209.50 299.37 L 209.76 233.68 L 210.01 168.00 L 224.51 168.00 L 239.00 168.00 L 239.00 256.50 L 239.00 345.00 L 223.25 344.99 L 207.50 344.99 L 186.35 311.74 ZM 379.72 333.75 C375.72,327.56 356.94,298.11 337.97,268.30 L 303.50 214.11 L 303.24 279.05 L 302.99 344.00 L 287.99 344.00 L 273.00 344.00 L 273.00 256.00 L 273.00 168.00 L 289.25 168.04 L 305.50 168.09 L 324.50 198.22 C341.47,225.13 361.24,256.21 381.93,288.50 L 388.98 299.50 L 388.99 233.75 L 389.00 168.00 L 403.50 168.00 L 418.00 168.00 L 418.00 256.50 L 418.00 345.00 L 402.49 345.00 L 386.99 345.00 L 379.72 333.75 Z" fill="rgb(249,251,252)"/>
</g>
</svg>